<?xml version="1.0" encoding="utf-8"?>
<!-- Generator: Adobe Illustrator 16.0.0, SVG Export Plug-In . SVG Version: 6.00 Build 0)  -->
<!DOCTYPE svg PUBLIC "-//W3C//DTD SVG 1.1//EN" "http://www.w3.org/Graphics/SVG/1.1/DTD/svg11.dtd">
<svg version="1.1" xmlns="http://www.w3.org/2000/svg" xmlns:xlink="http://www.w3.org/1999/xlink" x="0px" y="0px"
	 width="40.568px" height="42.857px" viewBox="0 0 40.568 42.857" enable-background="new 0 0 40.568 42.857" xml:space="preserve">
<g id="Layer_1" display="none">
	<g display="inline">
		<g>
			<polygon fill="none" stroke="#1D74F2" stroke-miterlimit="10" points="2.418,39.274 22.464,39.274 37.924,29.582 37.924,3.356 
				2.418,3.356 			"/>
			<g>
				<polygon fill="#1D74F2" points="15.517,12.844 28.686,20.446 15.517,28.044 				"/>
			</g>
		</g>
	</g>
</g>
<g id="Layer_1_copy" display="none">
	<polygon display="inline" fill="none" stroke="#000000" stroke-miterlimit="10" points="2.418,39.274 22.464,39.274 37.924,29.582 
		37.924,3.356 2.418,3.356 	"/>
	<g display="inline">
		<polygon points="15.517,12.844 28.686,20.446 15.517,28.044 		"/>
	</g>
</g>
<g id="Layer_1_copy_2" display="none">
	<polygon display="inline" fill="none" stroke="#D72029" stroke-miterlimit="10" points="2.418,39.274 22.464,39.274 37.924,29.582 
		37.924,3.356 2.418,3.356 	"/>
	<g display="inline">
		<polygon fill="#D72029" points="15.517,12.844 28.686,20.446 15.517,28.044 		"/>
	</g>
</g>
<g id="Layer_1_copy_3">
	<polygon fill="none" stroke="#EA0080" stroke-miterlimit="10" points="2.418,39.274 22.464,39.274 37.924,29.582 37.924,3.356 
		2.418,3.356 	"/>
	<g>
		<polygon fill="#EA0080" points="15.517,12.844 28.686,20.446 15.517,28.044 		"/>
	</g>
</g>
<g id="Layer_1_copy_4" display="none">
	<polygon display="inline" fill="none" stroke="#A20263" stroke-miterlimit="10" points="2.418,39.274 22.464,39.274 37.924,29.582 
		37.924,3.356 2.418,3.356 	"/>
	<g display="inline">
		<polygon fill="#A20263" points="15.517,12.844 28.686,20.446 15.517,28.044 		"/>
	</g>
</g>
<g id="Layer_1_copy_5" display="none">
	<polygon display="inline" fill="none" stroke="#1B60AF" stroke-miterlimit="10" points="2.418,39.274 22.464,39.274 37.924,29.582 
		37.924,3.356 2.418,3.356 	"/>
	<g display="inline">
		<polygon fill="#1B60AF" points="15.517,12.844 28.686,20.446 15.517,28.044 		"/>
	</g>
</g>
<g id="Layer_1_copy_6" display="none">
	<polygon display="inline" fill="none" stroke="#FFFFFF" stroke-miterlimit="10" points="2.418,39.274 22.464,39.274 37.924,29.582 
		37.924,3.356 2.418,3.356 	"/>
	<g display="inline">
		<polygon fill="#FFFFFF" points="15.517,12.844 28.686,20.446 15.517,28.044 		"/>
	</g>
</g>
</svg>
